# xmcd
#
# Track frame offsets:
#	150
#	29859
#	58040
#	73665
#	109803
#	127560
#	147249
#	193000
#	221235
#	260536
#	275644
#	304815
#	331130
#
# Disc length: 4781 seconds
#
# Revision: 0
# Processed by: cddbd v1.5.2PL0 Copyright (c) Steve Scherf et al.
# Submitted via: EZCDAudioConverter 1.0.4.1
#
DISCID=cf12ab0d
DTITLE=Eric Clapton - Live In Hyde Park (DVD-Rip)
DYEAR=1997
DGENRE=Rock and Blues
TTITLE0=Layla
TTITLE1=Badge
TTITLE2=Hoochie Coochie Man
TTITLE3=I Shot The Sheriff
TTITLE4=It Hurts Me Too
TTITLE5=Wonderful Tonight
TTITLE6=Five Long Years
TTITLE7=Tearin' Us Apart
TTITLE8=Old Love
TTITLE9=I'm Tore Down
TTITLE10=Have You Ever Loved A Woman
TTITLE11=White Room
TTITLE12=Holy Mother
EXTD=
EXTT0=
EXTT1=
EXTT2=
EXTT3=
EXTT4=
EXTT5=
EXTT6=
EXTT7=
EXTT8=
EXTT9=
EXTT10=
EXTT11=
EXTT12=
PLAYORDER=
